<?xml version="1.0" encoding="utf-8"?>
<!-- Generator: Adobe Illustrator 24.0.2, SVG Export Plug-In . SVG Version: 6.00 Build 0)  -->
<svg version="1.1" id="Layer_1" xmlns="http://www.w3.org/2000/svg" xmlns:xlink="http://www.w3.org/1999/xlink" x="0px" y="0px"
	 viewBox="0 0 474.6 298.4" style="enable-background:new 0 0 474.6 298.4;" xml:space="preserve">
<style type="text/css">
	.st0{fill:none;stroke:#333333;stroke-width:10;}
	.st1{fill:url(#SVGID_1_);}
	.st2{fill:url(#SVGID_2_);}
</style>
<g>
	<polyline class="st0" points="65,84.8 65,213.8 382.1,213.8 	"/>
	<line class="st0" x1="65" y1="164.1" x2="101.1" y2="164.1"/>
	<line class="st0" x1="203.2" y1="186.5" x2="203.2" y2="213.8"/>
	<polyline class="st0" points="95.1,84.8 412.9,84.8 412.9,213.8 	"/>
	<line class="st0" x1="273.3" y1="84.8" x2="273.3" y2="112.1"/>
	<polyline class="st0" points="135.8,112.1 101.1,112.1 101.1,137.9 203.2,137.9 203.2,162.2 169.2,162.2 169.2,186.5 101.1,186.5 	
		"/>
	<line class="st0" x1="133.1" y1="137.9" x2="133.1" y2="164.1"/>
	<line class="st0" x1="169.8" y1="84.8" x2="169.8" y2="137.9"/>
	<polyline class="st0" points="378.1,164.1 378.1,137.9 412.9,137.9 	"/>
	<line class="st0" x1="342.8" y1="189.4" x2="412.9" y2="189.4"/>
	<polyline class="st0" points="203.2,112.1 239.3,112.1 239.3,137.9 273.3,137.9 273.3,164.1 342.8,164.1 342.8,112.1 308.7,112.1 
		308,137.9 	"/>
	<line class="st0" x1="382.1" y1="112.1" x2="342.8" y2="112.1"/>
	<polyline class="st0" points="239.3,164.1 239.3,186.5 308.7,186.5 308.7,164.1 	"/>
	<line class="st0" x1="274" y1="186.5" x2="274" y2="213.8"/>
	
		<linearGradient id="SVGID_1_" gradientUnits="userSpaceOnUse" x1="82.228" y1="204.1872" x2="82.228" y2="231.9291" gradientTransform="matrix(1 0 0 -1 0 297.89)">
		<stop  offset="0.5031" style="stop-color:#FF0000"/>
		<stop  offset="0.6056" style="stop-color:#F20004;stop-opacity:0.7937"/>
		<stop  offset="0.7972" style="stop-color:#CE000F;stop-opacity:0.4081"/>
		<stop  offset="1" style="stop-color:#A2001C;stop-opacity:0"/>
	</linearGradient>
	<path class="st1" d="M86.3,81.7V68.4h-8.1v13.3l-5.6-1.5c3.9,3.2,7.5,8.5,9.7,12.7c2.1-4.2,5.8-9.4,9.7-12.7L86.3,81.7z"/>
	
		<linearGradient id="SVGID_2_" gradientUnits="userSpaceOnUse" x1="395.4928" y1="67.7984" x2="395.4928" y2="95.5409" gradientTransform="matrix(1 0 0 -1 0 297.89)">
		<stop  offset="0.5031" style="stop-color:#0AB000"/>
		<stop  offset="0.6758" style="stop-color:#17B508;stop-opacity:0.6523"/>
		<stop  offset="0.9979" style="stop-color:#3BC41C;stop-opacity:4.300000e-03"/>
		<stop  offset="1" style="stop-color:#3BC41C;stop-opacity:0"/>
	</linearGradient>
	<path class="st2" d="M399.6,218.1v-13.3h-8.1v13.3l-5.6-1.5c3.9,3.2,7.5,8.5,9.7,12.7c2.1-4.2,5.8-9.4,9.7-12.7L399.6,218.1z"/>
</g>
<rect x="12.3" y="9" class="st0" width="454" height="284"/>
</svg>
